# xmcd CD database file
#
# Track frame offsets:
#	150
#	8657
#	18376
#	29945
#	39739
#	49671
#	60427
#	71369
#	84062
#	94537
#	107187
#	119045
#	129130
#	140453
#	151640
#	162139
#	174665
#	185874
#	197103
#	207833
#
# Disc length: 2921 seconds
#
# Revision: 3
# Processed by: cddbd v1.5.2PL0 Copyright (c) Steve Scherf et al.
# Submitted via: Feurio! 1.68 - http://www.feurio.com
#
DISCID=090b6714
DTITLE=Various Artist - Rhythm and Blues - Original Masters - CD 9
DYEAR=2005
DGENRE=R&B
TTITLE0=Silhouettes - Miss Thing
TTITLE1=Millionaires - Arkansas Jane
TTITLE2=John Lee - Rhythm Rockin' Boogie
TTITLE3=Wynona Carr - Touch And Go
TTITLE4=Eddie Clearwater - A Real Good Time
TTITLE5=Ricky Charles - Hi Yo Silver
TTITLE6=Boy Bonner - Running Shoes
TTITLE7=Bill Broonzy - Little City Woman
TTITLE8=Johnny Wright - Look At That Chick
TTITLE9=Jumpin' Jay - Come On Home
TTITLE10=Washboard Sam - Never Never
TTITLE11=Big Maybelle - Rockhouse
TTITLE12=Model T Slim - Shake Your Boogie
TTITLE13=J.D.Edwards - Hobo
TTITLE14=Bobby Long - Jersey City
TTITLE15=Louisiana Red - Ride On Red
TTITLE16=Junior Wells - Little By Little
TTITLE17=Little Willie John - Leave My Kitten Alone
TTITLE18=Jimmy Liggins - I Ain't Drunk
TTITLE19=Sam Myers - You Don't Have To Go
EXTD=
EXTT0=
EXTT1=
EXTT2=
EXTT3=
EXTT4=
EXTT5=
EXTT6=
EXTT7=
EXTT8=
EXTT9=
EXTT10=
EXTT11=
EXTT12=
EXTT13=
EXTT14=
EXTT15=
EXTT16=
EXTT17=
EXTT18=
EXTT19=
PLAYORDER=
